HIERARCHY
ROOT hip
{
	OFFSET 0.000000 0.000000 0.000000
	CHANNELS 6 Xposition Yposition Zposition Xrotation Zrotation Yrotation 
	JOINT abdomen
	{
		OFFSET 0.000000 3.422050 0.000000
		CHANNELS 3 Xrotation Zrotation Yrotation 
		JOINT chest
		{
			OFFSET 0.000000 8.486693 -0.684411
			CHANNELS 3 Xrotation Zrotation Yrotation 
			JOINT neck
			{
				OFFSET 0.000000 10.266162 -0.273764
				CHANNELS 3 Xrotation Zrotation Yrotation 
				JOINT head
				{
					OFFSET 0.000000 3.148285 0.000000
					CHANNELS 3 Xrotation Zrotation Yrotation 
					End Site
					{
						OFFSET 0.000000 3.148289 0.000000
					}
				}
			}
			JOINT lCollar
			{
				OFFSET 3.422053 6.707223 -0.821293
				CHANNELS 3 Yrotation Zrotation Xrotation 
				JOINT lShldr
				{
					OFFSET 3.285171 0.000000 0.000000
					CHANNELS 3 Zrotation Yrotation Xrotation 
					JOINT lForeArm
					{
						OFFSET 10.129278 0.000000 0.000000
						CHANNELS 3 Yrotation Zrotation Xrotation 
						JOINT lHand
						{
							OFFSET 8.486692 0.000000 0.000000
							CHANNELS 3 Zrotation Yrotation Xrotation 
							End Site
							{
								OFFSET 4.106464 0.000000 0.000000
							}
						}
					}
				}
			}
			JOINT rCollar
			{
				OFFSET -3.558935 6.707223 -0.821293
				CHANNELS 3 Yrotation Zrotation Xrotation 
				JOINT rShldr
				{
					OFFSET -3.148289 0.000000 0.000000
					CHANNELS 3 Zrotation Yrotation Xrotation 
					JOINT rForeArm
					{
						OFFSET -10.266159 0.000000 0.000000
						CHANNELS 3 Yrotation Zrotation Xrotation 
						JOINT rHand
						{
							OFFSET -8.349810 0.000000 0.000000
							CHANNELS 3 Zrotation Yrotation Xrotation 
							End Site
							{
								OFFSET -4.106464 0.000000 0.000000
							}
						}
					}
				}
			}
		}
	}
	JOINT lThigh
	{
		OFFSET 5.338403 -1.642589 1.368821
		CHANNELS 3 Xrotation Zrotation Yrotation 
		JOINT lShin
		{
			OFFSET -2.053232 -20.121670 0.000000
			CHANNELS 3 Xrotation Zrotation Yrotation 
			JOINT lFoot
			{
				OFFSET 0.000000 -19.300380 -1.231939
				CHANNELS 3 Xrotation Yrotation Zrotation 
				End Site
				{
					OFFSET 0.000000 -2.463878 4.653993
				}
			}
		}
	}
	JOINT rThigh
	{
		OFFSET -5.338403 -1.642589 1.368821
		CHANNELS 3 Xrotation Zrotation Yrotation 
		JOINT rShin
		{
			OFFSET 2.053232 -20.121670 0.000000
			CHANNELS 3 Xrotation Zrotation Yrotation 
			JOINT rFoot
			{
				OFFSET 0.000000 -19.300380 -1.231939
				CHANNELS 3 Xrotation Yrotation Zrotation 
				End Site
				{
					OFFSET 0.000000 -2.463878 4.653993
				}
			}
		}
	}
}
MOTION
Frames: 6
Frame Time: 0.033264
1.246552 7.937199 -0.045055 -48.026028 0.432040 -1.982361 23.081062 0.000000 0.000000 8.896189 3.350707 -2.632886 26.882566 0.380023 13.754911 0.490604 15.022970 13.906000 -0.000049 11.002516 6.990519 -92.005486 29.999100 34.999729 -1.968575 3.536976 -52.797832 62.997875 -18.001196 -0.003769 -0.003271 -11.006244 6.990227 91.999397 -29.999727 34.998676 1.963897 -3.538549 -52.797939 -63.001537 17.998188 -0.002497 -38.471531 36.701859 8.696856 13.361038 9.559121 29.614597 31.233868 -14.929904 -24.358126 -108.439293 -51.953251 25.107574 101.511810 -7.381607 0.271053 23.943972 10.948182 25.684740 
1.246552 7.937199 -0.045055 -48.026028 0.432040 -1.982361 23.081062 0.000000 0.000000 8.896189 3.350707 -2.632886 26.958696 0.376239 13.674175 0.559927 14.841970 13.854040 -0.000049 11.002516 6.990519 -92.005486 29.999100 34.999729 -1.968575 3.536976 -52.797832 62.997868 -18.001196 -0.003769 -0.003271 -11.006244 6.990227 91.999397 -29.999727 34.998676 1.963897 -3.538548 -52.797932 -63.001530 17.998186 -0.002497 -38.471531 36.701859 8.696856 13.361038 9.559121 29.614597 31.233868 -14.929904 -24.358126 -108.557983 -52.098461 25.097744 101.511810 -7.381607 0.271053 23.943972 10.948182 25.684740 
1.246552 7.937199 -0.045055 -48.026028 0.432040 -1.982361 23.081062 0.000000 0.000000 8.896189 3.350707 -2.632886 27.034836 0.372562 13.593426 0.629389 14.660958 13.801879 -0.000049 11.002516 6.990519 -92.005486 29.999100 34.999729 -1.968575 3.536976 -52.797832 62.997868 -18.001196 -0.003769 -0.003271 -11.006244 6.990227 91.999397 -29.999727 34.998676 1.963897 -3.538548 -52.797932 -63.001530 17.998186 -0.002497 -38.471531 36.701859 8.696856 13.361038 9.559121 29.614597 31.233868 -14.929904 -24.358126 -108.677010 -52.243687 25.088373 101.511810 -7.381607 0.271053 23.943972 10.948182 25.684740 
1.246552 7.937199 -0.045055 -48.026028 0.432040 -1.982361 23.081062 0.000000 0.000000 8.896189 3.350707 -2.632886 27.110987 0.368992 13.512667 0.698993 14.479933 13.749510 -0.000049 11.002516 6.990519 -92.005486 29.999100 34.999729 -1.968575 3.536976 -52.797832 62.997868 -18.001196 -0.003769 -0.003271 -11.006244 6.990227 91.999397 -29.999727 34.998676 1.963897 -3.538548 -52.797932 -63.001530 17.998186 -0.002497 -38.471531 36.701859 8.696856 13.361038 9.559121 29.614597 31.233868 -14.929904 -24.358126 -108.796410 -52.388916 25.079477 101.511810 -7.381607 0.271053 23.943972 10.948182 25.684740 
1.246552 7.937199 -0.045055 -48.026028 0.432040 -1.982361 23.081062 0.000000 0.000000 8.896189 3.350707 -2.632886 27.187149 0.365530 13.431900 0.768739 14.298895 13.696936 -0.000049 11.002516 6.990519 -92.005486 29.999100 34.999729 -1.968575 3.536976 -52.797832 62.997868 -18.001196 -0.003769 -0.003271 -11.006244 6.990227 91.999397 -29.999727 34.998676 1.963897 -3.538548 -52.797932 -63.001530 17.998186 -0.002497 -38.471531 36.701859 8.696856 13.361038 9.559121 29.614597 31.233868 -14.929904 -24.358126 -108.916138 -52.534149 25.071039 101.511810 -7.381607 0.271053 23.943972 10.948182 25.684740 
1.246552 7.937199 -0.045055 -48.026028 0.432040 -1.982361 23.081062 0.000000 0.000000 8.896189 3.350707 -2.632886 27.263327 0.362174 13.351125 0.838628 14.117853 13.644157 -0.000049 11.002516 6.990519 -92.005486 29.999100 34.999729 -1.968575 3.536976 -52.797832 62.997868 -18.001196 -0.003769 -0.003271 -11.006244 6.990227 91.999397 -29.999727 34.998676 1.963897 -3.538548 -52.797932 -63.001530 17.998186 -0.002497 -38.471531 36.701859 8.696856 13.361038 9.559121 29.614597 31.233868 -14.929904 -24.358126 -109.036240 -52.679405 25.063089 101.511810 -7.381607 0.271053 23.943972 10.948182 25.684740 
